<svg width="422" height="422" viewBox="0 0 422 422" fill="none" xmlns="http://www.w3.org/2000/svg">
<rect x="11" y="7" width="400" height="400" rx="80" fill="#1A1A1A"/>
<g filter="url(#filter0_bdiiiii_167_635)">
<rect x="20" y="16" width="382" height="382" rx="75" fill="#1A1A1A" fill-opacity="0.05" shape-rendering="crispEdges"/>
</g>
<path d="M84.2702 108.847L134.59 92C134.59 104.241 139.432 115.981 148.05 124.637C156.668 133.292 168.357 138.155 180.545 138.155C192.733 138.155 204.421 133.292 213.039 124.637C221.657 115.981 226.499 104.241 226.499 92L276.819 108.847C282.019 110.587 286.428 114.136 289.251 118.855C292.074 123.573 293.125 129.15 292.214 134.578L285.55 174.618C285.113 177.328 283.727 179.793 281.643 181.57C279.558 183.347 276.911 184.318 274.177 184.31H249.476V299.698C249.476 312.391 239.136 322.776 226.499 322.776H134.59C128.496 322.776 122.652 320.344 118.343 316.016C114.034 311.689 111.613 305.819 111.613 299.698V184.31H86.9126C84.1785 184.318 81.5313 183.347 79.4466 181.57C77.3619 179.793 75.9763 177.328 75.5389 174.618L68.8755 134.578C67.9642 129.15 69.0148 123.573 71.8378 118.855C74.6608 114.136 79.0703 110.587 84.2702 108.847Z" stroke="#FAFAFA" stroke-width="10" stroke-linecap="round" stroke-linejoin="round"/>
<path d="M144.737 108.847L195.057 92C195.057 104.241 199.898 115.981 208.516 124.637C217.134 133.292 228.823 138.155 241.011 138.155C253.199 138.155 264.887 133.292 273.506 124.637C282.124 115.981 286.965 104.241 286.965 92L337.285 108.847C342.485 110.587 346.895 114.136 349.718 118.855C352.541 123.573 353.591 129.15 352.68 134.578L346.017 174.618C345.579 177.328 344.194 179.793 342.109 181.57C340.024 183.347 337.377 184.318 334.643 184.31H309.943V299.698C309.943 312.391 299.603 322.776 286.965 322.776H195.057C188.963 322.776 183.118 320.344 178.809 316.016C174.5 311.689 172.079 305.819 172.079 299.698V184.31H147.379C144.645 184.318 141.998 183.347 139.913 181.57C137.828 179.793 136.443 177.328 136.005 174.618L129.342 134.578C128.43 129.15 129.481 123.573 132.304 118.855C135.127 114.136 139.537 110.587 144.737 108.847Z" stroke="#FAFAFA" stroke-width="10" stroke-linecap="round" stroke-linejoin="round"/>
<defs>
<filter id="filter0_bdiiiii_167_635" x="-20" y="-24" width="462" height="462" filterUnits="userSpaceOnUse" color-interpolation-filters="sRGB">
<feFlood flood-opacity="0" result="BackgroundImageFix"/>
<feGaussianBlur in="BackgroundImageFix" stdDeviation="20"/>
<feComposite in2="SourceAlpha" operator="in" result="effect1_backgroundBlur_167_635"/>
<feColorMatrix in="SourceAlpha" type="matrix" values="0 0 0 0 0 0 0 0 0 0 0 0 0 0 0 0 0 0 127 0" result="hardAlpha"/>
<feOffset dy="4"/>
<feGaussianBlur stdDeviation="10"/>
<feComposite in2="hardAlpha" operator="out"/>
<feColorMatrix type="matrix" values="0 0 0 0 0.101961 0 0 0 0 0.101961 0 0 0 0 0.101961 0 0 0 0.2 0"/>
<feBlend mode="normal" in2="effect1_backgroundBlur_167_635" result="effect2_dropShadow_167_635"/>
<feBlend mode="normal" in="SourceGraphic" in2="effect2_dropShadow_167_635" result="shape"/>
<feColorMatrix in="SourceAlpha" type="matrix" values="0 0 0 0 0 0 0 0 0 0 0 0 0 0 0 0 0 0 127 0" result="hardAlpha"/>
<feOffset dy="4"/>
<feGaussianBlur stdDeviation="6"/>
<feComposite in2="hardAlpha" operator="arithmetic" k2="-1" k3="1"/>
<feColorMatrix type="matrix" values="0 0 0 0 1 0 0 0 0 1 0 0 0 0 1 0 0 0 0.4 0"/>
<feBlend mode="normal" in2="shape" result="effect3_innerShadow_167_635"/>
<feColorMatrix in="SourceAlpha" type="matrix" values="0 0 0 0 0 0 0 0 0 0 0 0 0 0 0 0 0 0 127 0" result="hardAlpha"/>
<feOffset dy="-40"/>
<feGaussianBlur stdDeviation="20"/>
<feComposite in2="hardAlpha" operator="arithmetic" k2="-1" k3="1"/>
<feColorMatrix type="matrix" values="0 0 0 0 0.101961 0 0 0 0 0.101961 0 0 0 0 0.101961 0 0 0 0.2 0"/>
<feBlend mode="normal" in2="effect3_innerShadow_167_635" result="effect4_innerShadow_167_635"/>
<feColorMatrix in="SourceAlpha" type="matrix" values="0 0 0 0 0 0 0 0 0 0 0 0 0 0 0 0 0 0 127 0" result="hardAlpha"/>
<feOffset dy="-4"/>
<feGaussianBlur stdDeviation="2"/>
<feComposite in2="hardAlpha" operator="arithmetic" k2="-1" k3="1"/>
<feColorMatrix type="matrix" values="0 0 0 0 1 0 0 0 0 1 0 0 0 0 1 0 0 0 0.25 0"/>
<feBlend mode="normal" in2="effect4_innerShadow_167_635" result="effect5_innerShadow_167_635"/>
<feColorMatrix in="SourceAlpha" type="matrix" values="0 0 0 0 0 0 0 0 0 0 0 0 0 0 0 0 0 0 127 0" result="hardAlpha"/>
<feOffset dy="20"/>
<feGaussianBlur stdDeviation="20"/>
<feComposite in2="hardAlpha" operator="arithmetic" k2="-1" k3="1"/>
<feColorMatrix type="matrix" values="0 0 0 0 1 0 0 0 0 1 0 0 0 0 1 0 0 0 0.25 0"/>
<feBlend mode="normal" in2="effect5_innerShadow_167_635" result="effect6_innerShadow_167_635"/>
<feColorMatrix in="SourceAlpha" type="matrix" values="0 0 0 0 0 0 0 0 0 0 0 0 0 0 0 0 0 0 127 0" result="hardAlpha"/>
<feOffset dy="1"/>
<feGaussianBlur stdDeviation="1"/>
<feComposite in2="hardAlpha" operator="arithmetic" k2="-1" k3="1"/>
<feColorMatrix type="matrix" values="0 0 0 0 1 0 0 0 0 1 0 0 0 0 1 0 0 0 0.8 0"/>
<feBlend mode="normal" in2="effect6_innerShadow_167_635" result="effect7_innerShadow_167_635"/>
</filter>
</defs>
</svg>
